<svg width="672" height="583" viewBox="0 0 672 583" fill="none" xmlns="http://www.w3.org/2000/svg">
<path d="M1.18132 292.401C-1.81721 285.904 1.10028 278.189 7.58359 275.184C14.0669 272.179 21.7658 275.103 24.7644 281.599C27.7629 288.096 24.8454 295.811 18.3621 298.816C11.8788 301.821 4.17986 298.897 1.18132 292.401ZM4.74714 290.776C6.85422 295.324 12.203 297.354 16.8223 295.243C21.3607 293.131 23.3867 287.772 21.2796 283.142C19.1725 278.513 13.8238 276.564 9.20442 278.676C4.6661 280.787 2.64007 286.228 4.74714 290.776Z" fill="url(#paint0_linear_439_6)"/>
<path d="M590.673 18.9121L589.75 12.4686C589.75 12.2176 589.918 11.9665 590.169 11.8828L596.628 10.9624C596.88 10.9624 597.048 10.7113 597.048 10.3766L596.544 6.77825C596.544 6.5272 596.293 6.35984 595.957 6.35984L589.498 7.28033C589.247 7.28033 588.995 7.11297 588.911 6.86192L587.989 0.41841C587.989 0.167364 587.737 0 587.401 0L583.794 0.502097C583.543 0.502097 583.375 0.753141 583.375 1.08787L584.298 7.53138C584.298 7.78243 584.13 8.03347 583.878 8.11715L577.419 9.03766C577.168 9.03766 577 9.2887 577 9.62343L577.503 13.2218C577.503 13.4728 577.755 13.6402 578.09 13.6402L584.549 12.7197C584.801 12.7197 585.053 12.887 585.137 13.1381L586.059 19.5816C586.059 19.8326 586.311 20 586.646 20L590.253 19.4979C590.505 19.4142 590.673 19.1632 590.673 18.9121Z" fill="#FDD08D"/>
<path d="M652.909 577.154C650.602 572.157 652.846 566.222 657.834 563.911C662.821 561.599 668.743 563.848 671.05 568.846C673.356 573.843 671.112 579.778 666.125 582.089C661.138 584.401 655.215 582.152 652.909 577.154ZM655.652 575.905C657.272 579.403 661.387 580.965 664.94 579.341C668.431 577.716 669.99 573.593 668.369 570.033C666.748 566.472 662.634 564.973 659.08 566.597C655.589 568.221 654.031 572.407 655.652 575.905Z" fill="url(#paint1_linear_439_6)"/>
<defs>
<linearGradient id="paint0_linear_439_6" x1="7.76221" y1="275.126" x2="18.2915" y2="298.887" gradientUnits="userSpaceOnUse">
<stop stop-color="#BFF0DD"/>
<stop offset="1" stop-color="#57D2A3"/>
</linearGradient>
<linearGradient id="paint1_linear_439_6" x1="657.971" y1="563.866" x2="666.07" y2="582.144" gradientUnits="userSpaceOnUse">
<stop stop-color="#BFF0DD"/>
<stop offset="1" stop-color="#57D2A3"/>
</linearGradient>
</defs>
</svg>
