<svg width="446" height="532" viewBox="0 0 446 532" fill="none" xmlns="http://www.w3.org/2000/svg">
<path d="M426.909 14.1542C424.602 9.15663 426.846 3.22201 431.833 0.910617C436.821 -1.40078 442.743 0.848124 445.049 5.84573C447.356 10.8433 445.112 16.778 440.125 19.0894C435.137 21.4008 429.215 19.1518 426.909 14.1542ZM429.652 12.9048C431.272 16.4032 435.387 17.9649 438.94 16.3407C442.431 14.7165 443.99 10.5935 442.369 7.03267C440.748 3.47188 436.634 1.9726 433.08 3.59682C429.589 5.22104 428.031 9.40652 429.652 12.9048Z" fill="url(#paint0_linear_462_4)"/>
<path d="M0.908711 526.154C-1.39785 521.157 0.846368 515.222 5.83353 512.911C10.8207 510.599 16.743 512.848 19.0495 517.846C21.3561 522.843 19.1119 528.778 14.1247 531.089C9.13753 533.401 3.21528 531.152 0.908711 526.154ZM3.65165 524.905C5.27248 528.403 9.3869 529.965 12.9403 528.341C16.4313 526.716 17.9898 522.593 16.3689 519.033C14.7481 515.472 10.6337 513.973 7.08033 515.597C3.58931 517.221 2.03082 521.407 3.65165 524.905Z" fill="url(#paint1_linear_462_4)"/>
<defs>
<linearGradient id="paint0_linear_462_4" x1="431.971" y1="0.866138" x2="440.07" y2="19.1436" gradientUnits="userSpaceOnUse">
<stop stop-color="#BFF0DD"/>
<stop offset="1" stop-color="#57D2A3"/>
</linearGradient>
<linearGradient id="paint1_linear_462_4" x1="5.97093" y1="512.866" x2="14.0704" y2="531.144" gradientUnits="userSpaceOnUse">
<stop stop-color="#BFF0DD"/>
<stop offset="1" stop-color="#57D2A3"/>
</linearGradient>
</defs>
</svg>
