<svg width="397" height="361" viewBox="0 0 397 361" fill="none" xmlns="http://www.w3.org/2000/svg">
<path d="M0.908711 14.1542C-1.39785 9.15663 0.846368 3.22201 5.83353 0.910617C10.8207 -1.40078 16.743 0.848124 19.0495 5.84573C21.3561 10.8433 19.1119 16.778 14.1247 19.0894C9.13753 21.4008 3.21528 19.1518 0.908711 14.1542ZM3.65165 12.9048C5.27248 16.4032 9.3869 17.9649 12.9403 16.3407C16.4313 14.7165 17.9898 10.5935 16.3689 7.03267C14.7481 3.47188 10.6337 1.9726 7.08033 3.59682C3.58931 5.22104 2.03082 9.40652 3.65165 12.9048Z" fill="url(#paint0_linear_462_5)"/>
<path d="M384.193 357.494L385.576 351.133C385.664 350.898 385.909 350.721 386.174 350.731L392.548 352.121C392.784 352.209 393.029 352.032 393.145 351.719L393.929 348.171C394.017 347.935 393.839 347.691 393.525 347.574L387.151 346.183C386.915 346.095 386.737 345.851 386.746 345.586L388.129 339.226C388.217 338.99 388.039 338.746 387.725 338.629L384.17 337.841C383.934 337.753 383.689 337.93 383.572 338.244L382.189 344.604C382.101 344.839 381.857 345.016 381.592 345.007L375.217 343.616C374.982 343.528 374.737 343.705 374.62 344.019L373.836 347.567C373.749 347.802 373.926 348.047 374.241 348.164L380.615 349.554C380.851 349.642 381.028 349.887 381.019 350.151L379.636 356.512C379.548 356.747 379.726 356.992 380.04 357.109L383.596 357.897C383.861 357.906 384.106 357.729 384.193 357.494Z" fill="#FDD08D"/>
<defs>
<linearGradient id="paint0_linear_462_5" x1="5.97093" y1="0.866138" x2="14.0704" y2="19.1436" gradientUnits="userSpaceOnUse">
<stop stop-color="#BFF0DD"/>
<stop offset="1" stop-color="#57D2A3"/>
</linearGradient>
</defs>
</svg>
