<svg width="423" height="398" viewBox="0 0 423 398" fill="none" xmlns="http://www.w3.org/2000/svg">
<path d="M403.909 392.154C401.602 387.157 403.846 381.222 408.834 378.911C413.821 376.599 419.743 378.848 422.049 383.846C424.356 388.843 422.112 394.778 417.125 397.089C412.138 399.401 406.215 397.152 403.909 392.154ZM406.652 390.905C408.272 394.403 412.387 395.965 415.94 394.341C419.431 392.716 420.99 388.593 419.369 385.033C417.748 381.472 413.634 379.973 410.08 381.597C406.589 383.221 405.031 387.407 406.652 390.905Z" fill="url(#paint0_linear_450_2)"/>
<path d="M13.698 20.5325L13.6228 14.0237C13.6555 13.7748 13.8546 13.5478 14.115 13.4976L20.6387 13.4266C20.8882 13.4594 21.0873 13.2323 21.1309 12.9004L21.1008 9.26722C21.1335 9.01832 20.9058 8.81959 20.5731 8.77587L14.0493 8.84688C13.7998 8.81408 13.5722 8.61536 13.5217 8.35553L13.4465 1.84671C13.4792 1.59781 13.2515 1.39908 12.9188 1.35536L9.27725 1.38317C9.02774 1.35038 8.8287 1.57742 8.78508 1.9093L8.86032 8.41811C8.82761 8.66701 8.62856 8.89406 8.36815 8.94423L1.84435 9.01526C1.59485 8.98247 1.39581 9.20951 1.35219 9.54138L1.38229 13.1746C1.34957 13.4235 1.57728 13.6222 1.90994 13.666L8.43374 13.5949C8.68324 13.6277 8.91095 13.8265 8.9614 14.0863L9.03659 20.5951C9.00387 20.844 9.23157 21.0427 9.56424 21.0865L13.2058 21.0587C13.4662 21.0085 13.6653 20.7814 13.698 20.5325Z" fill="#FDD08D"/>
<defs>
<linearGradient id="paint0_linear_450_2" x1="408.971" y1="378.866" x2="417.07" y2="397.144" gradientUnits="userSpaceOnUse">
<stop stop-color="#BFF0DD"/>
<stop offset="1" stop-color="#57D2A3"/>
</linearGradient>
</defs>
</svg>
